<?xml version="1.0" standalone="no"?>
<!DOCTYPE svg PUBLIC "-//W3C//DTD SVG 20010904//EN"
 "http://www.w3.org/TR/2001/REC-SVG-20010904/DTD/svg10.dtd">
<svg version="1.0" xmlns="http://www.w3.org/2000/svg"
 width="128.000000pt" height="125.000000pt" viewBox="0 0 128.000000 125.000000"
 preserveAspectRatio="xMidYMid meet">

<g transform="translate(0.000000,125.000000) scale(0.100000,-0.100000)"
fill="#000000" stroke="none">
<path d="M1190 670 l0 -580 -597 -3 -598 -2 603 -3 602 -2 0 585 c0 322 -2
585 -5 585 -3 0 -5 -261 -5 -580z"/>
<path d="M410 624 l0 -316 133 4 c123 3 135 5 179 31 80 47 122 147 99 233 -6
22 -27 59 -46 82 -35 40 -36 42 -20 71 42 82 -9 178 -105 200 -25 6 -89 11
-142 11 l-98 0 0 -316z m221 206 c13 -7 19 -21 19 -45 0 -42 -29 -65 -82 -65
l-38 0 0 60 0 60 41 0 c22 0 49 -5 60 -10z m31 -227 c36 -38 43 -72 24 -117
-17 -41 -62 -66 -121 -66 l-35 0 0 105 0 105 53 0 c45 0 57 -4 79 -27z"/>
</g>
</svg>
